G04*
G04 #@! TF.GenerationSoftware,Altium Limited,Altium Designer,18.0.11 (651)*
G04*
G04 Layer_Color=16711935*
%FSLAX43Y43*%
%MOMM*%
G71*
G01*
G75*
%ADD11C,0.200*%
G04:AMPARAMS|DCode=12|XSize=4.7mm|YSize=4.7mm|CornerRadius=1.225mm|HoleSize=0mm|Usage=FLASHONLY|Rotation=0.000|XOffset=0mm|YOffset=0mm|HoleType=Round|Shape=RoundedRectangle|*
%AMROUNDEDRECTD12*
21,1,4.700,2.250,0,0,0.0*
21,1,2.250,4.700,0,0,0.0*
1,1,2.450,1.125,-1.125*
1,1,2.450,-1.125,-1.125*
1,1,2.450,-1.125,1.125*
1,1,2.450,1.125,1.125*
%
%ADD12ROUNDEDRECTD12*%
%ADD16R,4.800X4.200*%
D11*
X74000Y19000D02*
D03*
X48000Y44000D02*
D03*
X29000Y32000D02*
D03*
X3000D02*
D03*
X55000Y7000D02*
D03*
X29000D02*
D03*
X3000D02*
D03*
D12*
X54975Y12500D02*
D03*
Y18500D02*
D03*
X28975Y37500D02*
D03*
X2975Y43500D02*
D03*
X28975Y12500D02*
D03*
Y18500D02*
D03*
X2975Y37500D02*
D03*
X28975Y43500D02*
D03*
X2975Y12500D02*
D03*
Y18500D02*
D03*
X21500Y28000D02*
D03*
X47500D02*
D03*
X21500Y3000D02*
D03*
X47500D02*
D03*
X73500D02*
D03*
X15500Y28000D02*
D03*
X41500D02*
D03*
X15500Y3000D02*
D03*
X41500D02*
D03*
X67500D02*
D03*
X9500Y28000D02*
D03*
X35500D02*
D03*
X9500Y3000D02*
D03*
X35500D02*
D03*
X61500D02*
D03*
D16*
X34000Y18500D02*
D03*
X60000Y12500D02*
D03*
X34000D02*
D03*
X60000Y18500D02*
D03*
X8000Y37500D02*
D03*
Y43500D02*
D03*
Y18500D02*
D03*
X73500Y7500D02*
D03*
X67500D02*
D03*
X61500D02*
D03*
X47500D02*
D03*
X41500D02*
D03*
X35500D02*
D03*
X21500D02*
D03*
X15500D02*
D03*
X9500D02*
D03*
X47500Y32500D02*
D03*
X41500D02*
D03*
X35500D02*
D03*
X21500D02*
D03*
X15500D02*
D03*
X9500D02*
D03*
X8000Y12500D02*
D03*
X34000Y43500D02*
D03*
X34000Y37500D02*
D03*
M02*
