M48
;Layer_Color=9474304
;FILE_FORMAT=4:3
METRIC,TZ
;TYPE=PLATED
T1F00S00C1.000
T2F00S00C3.300
;TYPE=NON_PLATED
T3F00S00C3.000
%
T01
X8000Y6000
Y7500
Y9000
X9500
Y7500
Y6000
X11000
Y7500
Y9000
X11500Y11000
X9500
Y12500
X8000
X6500
Y11000
X8000
X13500Y13000
X15500Y11000
X15500Y9000
X14000
Y7500
X15500
Y6000
X14000
X17000
Y7500
Y9000
X20000
X21500
Y7500
X20000
Y6000
X21500
X23000
Y7500
Y9000
X23500Y11000
X25500Y13000
X21500
X19500Y11000
X17500Y13000
X32500Y12500
X34000
X35500
Y11000
X34000
X32500
X34000Y9000
X35500
Y7500
X34000
Y6000
X35500
X37000
Y7500
Y9000
X37500Y11000
X39500Y13000
X41500Y11000
X41500Y9000
X40000
Y7500
X41500
Y6000
X40000
X43000
Y7500
Y9000
X46000
X47500
Y7500
X46000
Y6000
X47500
X49000
Y7500
Y9000
X49500Y11000
X51500Y13000
X47500
X45500Y11000
X43500Y13000
X58500Y12500
X60000
X61500
Y11000
X60000
X58500
X60000Y9000
X61500
Y7500
X60000
Y6000
X61500
X63000
Y7500
Y9000
X66000
X67500
Y7500
X66000
Y6000
X67500
X69000
Y7500
Y9000
X72000
X73500
Y7500
X72000
Y6000
X73500
X75000
Y7500
Y9000
X61500Y14000
X60000
X58500
Y17000
X60000
X61500
Y18500
X60000
X58500
Y20000
X60000
X61500
X51500Y19000
X47500
X49500Y21000
Y17000
Y15000
X45500
Y17000
X41500
Y15000
X37500
Y17000
X35500
X34000
X32500
Y18500
Y20000
X34000
Y18500
X35500
Y20000
X37500Y21000
X41500
X45500
X43500Y19000
X39500
X35500Y14000
X34000
X32500
X23500Y15000
Y17000
X25500Y19000
X21500
X23500Y21000
X19500
X15500
Y17000
Y15000
X19500
Y17000
X17500Y19000
X17000Y31000
Y32500
Y34000
X15500
X14000
Y32500
X15500
Y31000
X14000
X20000
Y32500
Y34000
X21500
Y32500
Y31000
X23000
Y32500
Y34000
X21500Y36000
X17500
X15500Y38000
X17500Y40000
Y42000
X21500
Y40000
X19500Y38000
X23500
X25500Y40000
Y42000
Y46000
X23500Y44000
X21500Y46000
X19500Y44000
X17500Y46000
X15500Y44000
X32500Y43500
X34000
X35500
Y42000
X34000
X32500
Y45000
X34000
X35500
X35500Y39000
Y37500
X34000
X32500
Y39000
X34000
Y36000
X35500
X35500Y34000
Y32500
X34000
Y34000
X37000
Y32500
Y31000
X35500
X34000
X40000
X41500
X43000
Y32500
X41500
Y34000
X43000
X46000
Y32500
Y31000
X47500
Y32500
Y34000
X49000
Y32500
Y31000
X40000Y32500
X40000Y34000
X32500Y36000
X25500
X13500
Y40000
Y42000
Y46000
X11500Y44000
X9500Y43500
Y42000
X8000
Y43500
X6500
Y42000
Y39000
Y37500
X8000
X9500
Y39000
X8000
Y36000
X6500
X9500
Y34000
X8000
Y32500
X9500
Y31000
X8000
X11000
Y32500
Y34000
X11500Y38000
X9500Y45000
X8000
X6500
Y20000
X8000
X9500
Y18500
X8000
X6500
Y17000
X8000
X9500
X11500
Y15000
X9500Y14000
X8000
X6500
X11500Y21000
X13500Y19000
T02
X9500Y3000
X2975Y12500
X15500Y3000
X21500
X35500
X41500
X47500
X28975Y12500
X54975
X61500Y3000
X67500
X73500
X54975Y18500
X47500Y28000
X41500
X35500
X21500
X15500
X28975Y18500
Y37500
Y43500
X2975
Y37500
X9500Y28000
X2975Y18500
T03
X3000Y7000
X29000
X55000
X74000Y19000
X48000Y44000
X29000Y32000
X3000
M30
